<?xml version="1.0" standalone="no"?>
<!DOCTYPE svg PUBLIC "-//W3C//DTD SVG 20010904//EN"
 "http://www.w3.org/TR/2001/REC-SVG-20010904/DTD/svg10.dtd">
<svg version="1.0" xmlns="http://www.w3.org/2000/svg"
 width="512.000000pt" height="512.000000pt" viewBox="0 0 512.000000 512.000000"
 preserveAspectRatio="xMidYMid meet">

<g transform="translate(0.000000,512.000000) scale(0.100000,-0.100000)"
fill="#000000" stroke="none">
<path d="M987 4983 c1 -38 5 -185 7 -328 5 -293 6 -306 98 -745 64 -308 71
-379 44 -444 -24 -59 -24 -59 57 -52 106 11 155 23 287 72 255 94 447 95 676
3 l79 -31 115 16 c141 20 292 20 425 1 l100 -14 85 30 c139 50 180 60 281 66
134 8 232 -9 416 -72 109 -37 184 -57 243 -63 47 -5 88 -8 92 -6 3 3 -15 39
-40 81 -44 72 -47 80 -45 142 1 36 17 138 37 226 85 394 105 543 126 918 6
104 15 199 20 213 5 13 8 24 7 24 -3 0 -106 -43 -227 -95 -123 -52 -408 -214
-462 -262 -9 -8 -22 -12 -30 -7 -7 4 -10 4 -6 -1 5 -4 -29 -35 -75 -68 -45
-34 -127 -97 -182 -142 -170 -140 -190 -145 -550 -145 -420 0 -465 10 -630
135 -244 184 -506 356 -777 509 -75 43 -142 84 -149 92 -21 25 -25 15 -22 -53z
m2383 -657 c0 -2 -8 -10 -17 -17 -16 -13 -17 -12 -4 4 13 16 21 21 21 13z
m-1555 -136 c10 -11 16 -20 13 -20 -3 0 -13 9 -23 20 -10 11 -16 20 -13 20 3
0 13 -9 23 -20z m1391 -73 c-33 -52 -66 -102 -73 -113 -12 -18 -12 -18 -6 1
10 31 128 205 138 205 2 0 -25 -42 -59 -93z m123 51 c-2 -2 -27 -23 -54 -48
-27 -25 -43 -36 -35 -25 19 27 73 74 84 75 5 0 7 -1 5 -2z m209 -25 c-10 -2
-26 -2 -35 0 -10 3 -2 5 17 5 19 0 27 -2 18 -5z m-1980 -10 c-10 -2 -28 -2
-40 0 -13 2 -5 4 17 4 22 1 32 -1 23 -4z m1905 0 c-7 -2 -19 -2 -25 0 -7 3 -2
5 12 5 14 0 19 -2 13 -5z m-1995 -10 c-10 -2 -26 -2 -35 0 -10 3 -2 5 17 5 19
0 27 -2 18 -5z m159 1 c-3 -3 -12 -4 -19 -1 -8 3 -5 6 6 6 11 1 17 -2 13 -5z
m294 -109 c26 -55 51 -114 54 -131 4 -16 -9 8 -29 54 -19 46 -49 108 -66 139
-17 30 -26 52 -19 48 6 -5 33 -54 60 -110z m1389 75 c-8 -5 -19 -10 -25 -10
-5 0 -3 5 5 10 8 5 20 10 25 10 6 0 3 -5 -5 -10z m-1190 -61 c-12 -23 -33 -83
-46 -133 -17 -67 -23 -82 -24 -55 0 46 25 132 58 192 31 58 42 55 12 -4z
m1110 38 c0 -2 -12 -14 -27 -28 l-28 -24 24 28 c23 25 31 32 31 24z m-245 -89
c19 -40 37 -93 40 -118 6 -40 3 -37 -20 28 -14 41 -34 91 -45 113 -21 40 -24
49 -15 49 4 0 21 -33 40 -72z m-41 -58 c22 -69 27 -100 17 -100 -5 0 -14 21
-20 46 -7 26 -21 64 -31 85 -11 21 -20 44 -20 51 1 23 39 -36 54 -82z m-790
13 c-13 -38 -24 -78 -24 -90 0 -13 -4 -23 -10 -23 -14 0 -13 16 5 84 17 63 31
96 44 96 4 0 -3 -30 -15 -67z m1286 63 c0 -2 -7 -7 -16 -10 -8 -3 -12 -2 -9 4
6 10 25 14 25 6z m-350 -104 c-15 -46 -31 -86 -34 -89 -7 -8 21 89 41 140 27
65 22 36 -7 -51z m310 85 c0 -2 -12 -14 -27 -28 l-28 -24 24 28 c23 25 31 32
31 24z m-1585 -47 c10 -11 16 -20 13 -20 -3 0 -13 9 -23 20 -10 11 -16 20 -13
20 3 0 13 -9 23 -20z m1525 -3 c0 -2 -15 -16 -32 -33 l-33 -29 29 33 c28 30
36 37 36 29z m-1482 -72 c-3 -3 -9 2 -12 12 -6 14 -5 15 5 6 7 -7 10 -15 7
-18z m139 -57 c-3 -8 -6 -5 -6 6 -1 11 2 17 5 13 3 -3 4 -12 1 -19z"/>
<path d="M1730 3500 c-160 -21 -259 -78 -331 -189 -35 -54 -36 -59 -6 -54 27
5 361 31 365 28 1 -1 -7 -22 -18 -46 -51 -113 -1 -268 104 -318 60 -30 111
-27 173 9 112 64 153 203 95 317 -53 102 -177 146 -284 100 -37 -15 -38 -15
-38 4 0 19 14 27 85 53 19 7 18 9 -10 32 l-30 24 57 -6 c31 -4 78 -3 105 1
l48 8 -55 17 c-67 21 -186 30 -260 20z m96 -315 c7 -18 -13 -45 -33 -45 -17 0
-27 24 -19 45 7 20 45 19 52 0z"/>
<path d="M3184 3500 c-59 -9 -124 -31 -124 -42 0 -4 12 -6 28 -3 15 2 56 6 92
9 l65 5 -27 -20 c-16 -11 -28 -24 -28 -29 0 -4 21 -10 46 -13 32 -3 55 -13 72
-31 14 -14 24 -28 21 -30 -3 -3 -27 1 -54 9 -26 8 -58 15 -69 15 -86 0 -177
-71 -202 -157 -36 -123 35 -272 143 -302 56 -16 82 -13 138 13 122 56 169 201
106 324 l-20 40 37 -4 c20 -2 97 -9 170 -14 74 -5 137 -12 142 -15 28 -18 -79
-242 -150 -313 -70 -69 -133 -98 -256 -115 -58 -9 -119 -24 -143 -37 -43 -21
-131 -96 -131 -110 0 -19 120 -52 207 -57 115 -7 196 8 290 53 173 83 274 254
260 444 -16 224 -150 347 -414 379 -97 12 -123 12 -199 1z m-87 -316 c7 -20
-22 -45 -43 -37 -14 5 -19 35 -7 46 12 13 44 7 50 -9z"/>
<path d="M2455 3413 c-26 -7 -115 -45 -115 -49 0 -2 32 -56 66 -112 1 -2 17 7
34 20 28 20 43 23 120 23 77 0 92 -3 120 -23 17 -13 32 -22 33 -20 2 2 41 82
55 110 2 4 -16 17 -40 29 -35 19 -61 23 -148 25 -58 2 -114 0 -125 -3z"/>
<path d="M1127 3233 c3 -6 -2 -45 -10 -85 -44 -213 -25 -428 53 -596 28 -61
125 -197 145 -205 6 -2 67 2 137 9 69 7 177 15 240 18 70 3 25 -3 -119 -17
-128 -13 -235 -25 -238 -29 -9 -8 90 -88 110 -88 9 0 51 9 93 19 110 28 224
51 247 50 11 -1 -9 -7 -45 -15 -36 -7 -116 -26 -178 -41 l-112 -27 41 -42 41
-42 67 27 c36 15 98 37 136 49 39 12 99 34 134 50 56 25 61 30 40 35 -13 4
-42 7 -64 8 -40 1 -40 1 -10 10 17 5 64 7 105 3 51 -4 102 -1 159 10 92 18
191 21 191 7 0 -6 -21 -12 -47 -16 -27 -3 -86 -13 -133 -22 -47 -8 -113 -19
-148 -24 -34 -5 -77 -15 -95 -23 -17 -9 -72 -29 -122 -47 -110 -38 -185 -69
-185 -77 0 -18 34 -92 42 -92 6 0 22 8 36 19 15 10 88 50 163 88 107 56 151
73 210 83 41 6 120 20 177 31 111 20 162 24 147 10 -17 -14 -237 -59 -318 -64
-72 -5 -88 -11 -222 -79 -80 -40 -157 -82 -170 -93 l-25 -20 15 -85 c27 -154
72 -265 162 -401 135 -206 390 -397 631 -473 137 -43 210 -32 402 60 309 148
544 366 656 609 54 116 53 118 -49 213 -107 99 -127 115 -241 186 -95 60 -105
71 -28 32 68 -34 199 -133 287 -217 41 -40 77 -70 80 -67 2 2 11 35 19 74 17
81 20 77 -84 133 -123 65 -217 98 -335 115 -106 16 -302 60 -313 71 -17 16 19
15 110 -4 57 -12 144 -28 194 -35 95 -14 211 -60 372 -148 40 -22 74 -39 75
-37 11 18 47 101 47 108 0 29 -439 137 -670 166 -70 8 -90 14 -90 26 0 14 84
11 180 -6 48 -8 146 -15 225 -15 114 0 167 -6 290 -30 166 -33 175 -34 175
-21 0 5 -28 16 -62 24 -35 9 -54 16 -42 16 11 1 43 -6 70 -14 l49 -15 53 53
52 52 -27 8 c-41 11 -493 -2 -521 -16 -18 -8 -53 -6 -160 11 -75 13 -150 22
-167 22 -16 0 -37 5 -45 10 -13 9 -13 11 0 20 22 14 50 12 210 -14 136 -23
163 -24 440 -20 263 4 296 7 308 22 7 9 18 16 23 14 6 -1 8 1 5 6 -3 5 10 38
29 73 100 190 121 462 53 692 -10 34 -14 38 -37 32 -46 -11 -71 -52 -71 -120
-1 -255 -177 -476 -431 -539 -139 -34 -322 -13 -444 52 -74 40 -184 155 -222
233 -43 87 -65 174 -57 226 6 39 3 45 -27 73 -67 61 -167 66 -242 13 l-42 -29
-1 -71 c-6 -279 -259 -514 -554 -513 -282 1 -492 160 -560 426 -11 43 -20 97
-20 122 0 54 -24 97 -66 117 -37 18 -84 17 -77 -2z m1583 -673 c7 -12 4 -16
-14 -18 -30 -4 -53 -29 -81 -89 l-23 -48 -11 28 c-6 16 -11 37 -11 47 0 10 -4
22 -10 25 -6 4 -10 -9 -10 -33 0 -21 -3 -42 -7 -45 -3 -4 -20 17 -38 46 -22
37 -40 55 -64 63 -28 9 -31 13 -19 25 22 21 275 20 288 -1z m-515 -121 c4 -6
5 -12 3 -15 -3 -2 -60 -14 -129 -27 -88 -16 -143 -21 -189 -17 l-65 5 123 24
c107 20 198 35 239 40 6 0 15 -4 18 -10z m1313 -116 c-10 -2 -26 -2 -35 0 -10
3 -2 5 17 5 19 0 27 -2 18 -5z m65 -10 c-7 -2 -19 -2 -25 0 -7 3 -2 5 12 5 14
0 19 -2 13 -5z m-1543 -128 c0 -3 -31 -20 -69 -39 -72 -37 -193 -124 -281
-203 -29 -26 -51 -42 -49 -36 12 35 214 190 323 247 72 37 76 39 76 31z m210
1 c0 -3 -16 -10 -36 -16 -47 -16 -99 -64 -178 -165 -63 -80 -146 -210 -146
-229 0 -5 -3 -7 -6 -4 -16 17 108 208 196 302 33 35 60 66 60 70 0 4 -18 -3
-41 -14 -51 -26 -184 -153 -252 -240 -65 -84 -74 -93 -51 -51 29 52 179 217
242 266 32 26 83 53 117 64 58 19 95 25 95 17z m807 -48 c64 -30 200 -149 266
-231 17 -23 -13 4 -68 59 -69 69 -125 115 -180 147 -101 59 -123 60 -52 2 57
-46 105 -105 152 -190 39 -68 26 -55 -33 35 -46 71 -103 131 -182 193 l-35 27
35 -6 c19 -3 63 -19 97 -36z"/>
<path d="M1351 3192 c-34 -161 17 -331 132 -438 108 -100 221 -139 377 -131
101 5 220 39 220 62 0 20 -77 84 -128 106 -25 11 -96 27 -157 35 -139 18 -194
44 -271 127 -51 55 -106 152 -151 267 -9 23 -11 21 -22 -28z"/>
<path d="M3221 2301 c-24 -7 -33 -4 277 -95 l122 -36 30 33 c25 27 37 47 28
47 -2 0 -68 14 -148 30 -140 29 -254 37 -309 21z"/>
<path d="M1535 1768 c-22 -35 -77 -113 -121 -174 l-81 -112 22 -88 c48 -187
166 -386 309 -522 92 -87 134 -108 199 -99 48 7 162 62 235 115 l52 39 -95 83
c-166 144 -305 328 -385 510 -33 74 -80 244 -80 286 0 37 -12 29 -55 -38z"/>
<path d="M3530 1793 c0 -97 -101 -325 -207 -468 -69 -94 -265 -294 -346 -355
-25 -19 -47 -40 -47 -45 0 -14 114 -89 187 -123 39 -17 80 -28 125 -30 58 -4
73 -1 118 24 98 53 228 219 317 403 55 115 117 297 107 314 -9 13 -77 98 -110
135 -12 13 -46 57 -75 97 -30 41 -57 74 -61 74 -5 1 -8 -11 -8 -26z"/>
<path d="M1209 1361 c-14 -14 -79 -78 -144 -141 -263 -255 -394 -462 -480
-761 -26 -88 -85 -404 -85 -452 0 -4 938 -7 2085 -7 1147 0 2085 3 2085 8 -1
41 -36 239 -56 322 -83 331 -183 488 -522 825 -95 94 -183 185 -197 204 -16
24 -26 30 -29 20 -2 -8 -16 -52 -30 -99 -71 -238 -270 -528 -421 -616 -44 -26
-60 -29 -130 -29 -71 0 -88 4 -157 37 -106 50 -152 83 -291 210 -156 141 -160
144 -253 128 -42 -7 -95 -10 -128 -6 -35 5 -63 3 -76 -4 -12 -6 -77 -65 -146
-130 -131 -126 -176 -160 -264 -205 -65 -33 -158 -44 -216 -25 -121 40 -297
231 -403 440 -47 92 -87 201 -96 263 -4 26 -10 46 -14 46 -3 -1 -18 -13 -32
-28z"/>
</g>
</svg>
