<?xml version="1.0" standalone="no"?>
<!DOCTYPE svg PUBLIC "-//W3C//DTD SVG 20010904//EN"
 "http://www.w3.org/TR/2001/REC-SVG-20010904/DTD/svg10.dtd">
<svg version="1.0" xmlns="http://www.w3.org/2000/svg"
 width="512.000000pt" height="512.000000pt" viewBox="0 0 512.000000 512.000000"
 preserveAspectRatio="xMidYMid meet">

<g transform="translate(0.000000,512.000000) scale(0.100000,-0.100000)"
fill="#000000" stroke="none">
<path d="M1414 2186 c-33 -7 -99 -30 -146 -53 -47 -22 -101 -44 -119 -48 l-34
-8 40 -18 c21 -10 42 -25 45 -34 3 -10 2 -47 -3 -82 -19 -130 32 -285 119
-362 47 -41 145 -91 216 -111 76 -20 200 -9 276 25 217 98 268 410 94 583
-101 102 -298 145 -488 108z m21 -86 c-3 -5 -12 -10 -18 -10 -7 0 -6 4 3 10
19 12 23 12 15 0z"/>
<path d="M3375 2186 c-154 -38 -251 -145 -275 -304 -27 -174 46 -324 189 -390
74 -35 210 -42 297 -17 140 40 233 115 291 233 36 72 38 81 43 201 l5 125 38
22 38 21 -38 5 c-21 3 -81 26 -133 51 -52 25 -122 50 -154 56 -78 14 -238 13
-301 -3z"/>
<path d="M2580 1340 c-9 -6 -10 -10 -3 -10 6 0 15 5 18 10 8 12 4 12 -15 0z"/>
<path d="M2540 1243 l0 -88 -53 -65 c-29 -36 -63 -69 -75 -75 -12 -5 -22 -13
-22 -18 0 -17 78 34 104 67 35 47 76 49 116 6 15 -16 25 -30 22 -30 -4 0 0 -5
8 -10 17 -11 41 -14 24 -2 -6 4 -32 36 -57 72 -46 63 -47 65 -47 141 0 43 -4
81 -10 84 -6 4 -10 -26 -10 -82z"/>
<path d="M4080 1323 c-191 -16 -650 -82 -650 -94 0 -12 -15 -14 344 31 344 44
366 47 366 61 0 5 -3 8 -7 7 -5 -1 -28 -3 -53 -5z"/>
<path d="M990 1310 c32 -12 576 -80 638 -79 90 1 8 18 -241 49 -265 33 -439
47 -397 30z"/>
<path d="M1048 1143 c-27 -2 -48 -9 -48 -15 0 -8 28 -9 92 -4 50 3 199 6 330
6 157 0 237 3 233 10 -6 9 -494 12 -607 3z"/>
<path d="M3450 1140 c-11 -7 -4 -10 25 -9 22 0 172 -2 332 -5 161 -3 295 -1
298 3 9 15 -98 21 -370 21 -157 0 -276 -4 -285 -10z"/>
<path d="M1595 1049 c-133 -29 -229 -55 -294 -81 -159 -62 -179 -88 -25 -32
54 19 162 51 239 70 161 40 225 75 80 43z"/>
<path d="M3420 1050 c0 -5 10 -12 23 -15 146 -31 271 -64 364 -96 127 -42 152
-37 41 9 -102 42 -190 68 -313 92 -124 23 -115 23 -115 10z"/>
<path d="M2248 1034 c13 -25 42 -50 42 -37 0 5 -12 20 -26 34 -24 21 -26 22
-16 3z"/>
<path d="M2829 1027 c-9 -12 -29 -23 -44 -25 -16 -1 -31 -5 -34 -8 -8 -8 64 2
78 10 14 9 34 46 24 46 -4 0 -15 -11 -24 -23z"/>
<path d="M4400 1002 c0 -13 -99 -111 -146 -143 -72 -49 -201 -109 -220 -102
-12 4 -15 3 -10 -5 5 -8 -3 -12 -24 -12 -16 0 -49 -9 -73 -20 -23 -10 -60 -21
-82 -24 -22 -3 -71 -12 -110 -21 -156 -36 -212 -46 -247 -46 -21 1 -38 -3 -38
-9 0 -6 -5 -8 -10 -5 -6 4 -34 2 -63 -4 -28 -5 -106 -15 -172 -21 -66 -6 -160
-15 -210 -20 -219 -22 -605 -28 -924 -15 -435 18 -840 103 -1089 229 -62 32
-80 34 -32 4 19 -12 37 -25 40 -29 16 -22 213 -98 385 -148 194 -57 521 -111
850 -141 267 -25 843 -22 1165 5 160 14 366 38 380 44 8 5 63 16 123 27 59 10
107 21 107 25 0 7 74 33 128 44 17 4 32 11 32 16 0 5 9 9 20 9 11 0 23 7 26
15 4 8 12 15 20 15 8 0 14 5 14 10 0 6 7 10 15 10 8 0 24 9 35 20 12 12 24 18
29 16 4 -3 18 13 30 34 12 22 29 40 37 40 8 0 14 9 14 19 0 11 6 22 13 24 9 4
8 8 -3 16 -13 9 -12 12 8 17 30 9 32 73 2 92 -11 7 -17 18 -14 27 4 8 3 15 0
15 -3 0 -6 -3 -6 -8z m-3 -94 c-3 -8 -6 -5 -6 6 -1 11 2 17 5 13 3 -3 4 -12 1
-19z"/>
<path d="M2333 993 c9 -2 23 -2 30 0 6 3 -1 5 -18 5 -16 0 -22 -2 -12 -5z"/>
</g>
</svg>
